<svg xmlns="http://www.w3.org/2000/svg" viewBox="0 0 32 32" fill="none" role="img" aria-label="ရဲတပ်ဖွဲ့">
  <path
    d="M16 2.5 27.5 7.8v8.2c0 6.2-4.8 11.8-11.5 13.5C9.3 27.8 4.5 22.2 4.5 16V7.8L16 2.5z"
    fill="#0c2340"
  />
  <path
    d="M16 5.2 24.8 9.4v6.6c0 4.6-3.6 8.8-8.8 10.1-5.2-1.3-8.8-5.5-8.8-10.1V9.4L16 5.2z"
    fill="#1a3a5c"
  />
  <path
    d="M16 2.5 27.5 7.8v8.2c0 6.2-4.8 11.8-11.5 13.5C9.3 27.8 4.5 22.2 4.5 16V7.8L16 2.5z"
    stroke="#c9a227"
    stroke-width="1.5"
    fill="none"
  />
  <path
    d="M16 10.5 17.4 14h3.8l-3.1 2.3 1.2 3.6L16 17.8l-3.3 2.1 1.2-3.6-3.1-2.3h3.8L16 10.5z"
    fill="#c9a227"
  />
  <rect x="11" y="21.5" width="10" height="1.2" rx="0.6" fill="#e8c547" opacity="0.9" />
  <rect x="12.5" y="23.8" width="7" height="1" rx="0.5" fill="#e8c547" opacity="0.65" />
</svg>
