<svg xmlns="http://www.w3.org/2000/svg" viewBox="0 0 64 64" fill="none">
  <defs>
    <linearGradient id="g" x1="16" y1="8" x2="48" y2="52" gradientUnits="userSpaceOnUse">
      <stop stop-color="#1a3a5c"/>
      <stop offset="1" stop-color="#0c2340"/>
    </linearGradient>
  </defs>
  <path d="M32 4 54 12.5V32c0 10.5-8.2 20-22 22.5C18.2 52 10 42.5 10 32V12.5L32 4z" fill="url(#g)"/>
  <path d="M32 4 54 12.5V32c0 10.5-8.2 20-22 22.5C18.2 52 10 42.5 10 32V12.5L32 4z" stroke="#c9a227" stroke-width="2.5" fill="none" stroke-linejoin="round"/>
  <path d="M32 18 35.2 26.2H44l-7.2 5.2 2.8 8.6L32 37.4l-7.6 2.6 2.8-8.6L20 26.2h8.8L32 18z" fill="#c9a227"/>
  <path d="M32 21.2 34.1 27h5.4l-4.4 3.2 1.7 5.2L32 33.6l-4.8 1.8 1.7-5.2-4.4-3.2h5.4L32 21.2z" fill="#e8c547" opacity="0.55"/>
  <rect x="22" y="44" width="20" height="2.5" rx="1.25" fill="#c9a227" opacity="0.95"/>
  <rect x="24" y="48.5" width="16" height="2" rx="1" fill="#c9a227" opacity="0.75"/>
  <rect x="26" y="52.5" width="12" height="1.8" rx="0.9" fill="#c9a227" opacity="0.5"/>
  <path d="M38 47.5 40.8 50.2 45.5 45" stroke="#e8c547" stroke-width="1.8" stroke-linecap="round" stroke-linejoin="round" fill="none" opacity="0.85"/>
</svg>
